# xmcd CD database file
#
# Track frame offsets:
#	150
#	20211
#	41382
#	61674
#	79505
#	102630
#	127061
#	144857
#	179697
#	198272
#	220794
#	249026
#	264352
#
# Disc length: 3801 seconds
#
# Revision: 3
# Processed by: cddbd v1.5.2PL0 Copyright (c) Steve Scherf et al.
# Submitted via: CDex 1.70beta2
#
DISCID=af0ed70d
DTITLE=Supersonic Blues Machine - Californisoul
DYEAR=2017
DGENRE=Blues
TTITLE0=I Am Done Missing You
TTITLE1=Somebody's Fool (ft. Robben Ford)
TTITLE2=L.O.V.E.
TTITLE3=Broken Heart ( ft. Billy F. Gibbons)
TTITLE4=Bad Boys
TTITLE5=Elevate (ft. Eric Gales)
TTITLE6=The One
TTITLE7=Hard Times (ft. Steve  Lukather)
TTITLE8=Cry
TTITLE9=The Stranger
TTITLE10=What's Wrong (ft. Walter Trout)
TTITLE11=Thank You!
TTITLE12=This Is Love
EXTD=Release-Date: 20.10.2017\n\nMARO\n YEAR: 2017
EXTT0=
EXTT1=
EXTT2=
EXTT3=
EXTT4=
EXTT5=
EXTT6=
EXTT7=
EXTT8=
EXTT9=
EXTT10=
EXTT11=
EXTT12=
PLAYORDER=
